<!-- sample rectangle -->
<svg xmlns="http://www.w3.org/2000/svg" width="64" height="64" viewBox="0 0 64 64" fill="none" class="injected-svg" data-src="/static/media/preorder_en.a6068a0d.svg" xmlns:xlink="http://www.w3.org/1999/xlink">
    <path d="M0 32C0 14.327 14.327 0 32 0c17.673 0 32 14.327 32 32 0 17.673-14.327 32-32 32C14.327 64 0 49.673 0 32z" fill="url(#bkf182es9a-3)"></path>
    <circle cx="32" cy="32" r="29.5" stroke="#fff"></circle>
    <path fill-rule="evenodd" clip-rule="evenodd" d="M13.208 20.77a7.563 7.563 0 1 1 15.125 0 7.563 7.563 0 0 1-15.125 0zm7.563-8.937a8.938 8.938 0 0 0-5.5 15.983v11.059c0 .239.124.46.327.586l5.958 3.666a.688.688 0 0 0 .721-1.17l-5.631-3.466V28.7a8.899 8.899 0 0 0 4.125 1.007c1.29 0 2.517-.273 3.624-.765l6 3.454v8.311a.687.687 0 1 0 1.376 0v-8.31l13.75-7.917v6.602a.687.687 0 1 0 1.375 0v-7.791a.687.687 0 0 0-.344-.596l.344.598-.345-.598-15.125-8.709a.687.687 0 0 0-.686 0l-2.714 1.563a8.926 8.926 0 0 0-7.255-3.717zm7.971 4.892a8.9 8.9 0 0 1 .966 4.046 8.928 8.928 0 0 1-3.912 7.392l5.287 3.044 13.748-7.915-13.748-7.915-2.34 1.348zM20.771 15.5c.38 0 .687.308.687.688v5.041c0 .38-.307.688-.687.688h-4.125a.687.687 0 1 1 0-1.375h3.437v-4.355c0-.38.308-.687.688-.687zm18 20.356c.274.315.429.75.429 1.21 0 1.32-1.006 1.968-2.269 1.968a9.96 9.96 0 0 1-.515-.026V40.9c0 .128-.052.204-.215.204h-.687c-.138 0-.206-.06-.206-.23v-5.436c0-.17.051-.23.214-.23h1.246c.911 0 1.581.17 2.002.648zm-1.848 2.326c.73 0 1.16-.341 1.16-1.074 0-.775-.481-1.048-1.22-1.048h-.447v2.113l.284.005.223.004zm7.37 2.7a.253.253 0 0 1 .042.12c0 .068-.052.102-.129.102h-.782c-.154 0-.258-.042-.335-.17l-1.237-2.002h-.662v1.96c0 .127-.051.212-.197.212h-.705c-.146 0-.206-.068-.206-.213v-5.436c0-.187.043-.247.232-.247h1.272c.747 0 1.538.111 1.993.63.275.316.412.733.412 1.194 0 .784-.42 1.397-1.108 1.695l1.41 2.156zm-2.57-2.777c.687 0 1.143-.366 1.143-1.056 0-.742-.499-1.006-1.246-1.006h-.43v2.062h.533zm7.07 2.31c0-.137-.07-.197-.215-.197h-2.303v-1.704h1.994c.145 0 .206-.06.206-.204v-.486c0-.12-.052-.187-.215-.187h-1.985v-1.543h2.157c.18 0 .275-.025.292-.178l.06-.512c.017-.119-.009-.196-.18-.196h-3.24c-.137 0-.197.077-.197.213v5.453c0 .188.06.23.232.23h3.187c.146 0 .207-.068.207-.204v-.486zM25.48 44.682c1.7 0 2.586 1.278 2.586 3.024 0 1.926-1.108 3.085-2.646 3.085-1.642 0-2.587-1.185-2.587-3.034 0-1.831 1.031-3.075 2.647-3.075zm-.026 5.18c.85 0 1.426-.741 1.426-2.13 0-1.431-.507-2.122-1.426-2.122-.86 0-1.435.793-1.435 2.122 0 1.414.524 2.13 1.435 2.13zm7.847.724a.252.252 0 0 0-.043-.12l-1.409-2.155c.687-.298 1.109-.911 1.109-1.695 0-.46-.138-.878-.413-1.193-.455-.52-1.246-.63-1.993-.63H29.28c-.189 0-.232.06-.232.247v5.435c0 .145.06.213.206.213h.705c.146 0 .198-.085.198-.213v-1.96h.661l1.237 2.003c.078.128.18.17.335.17h.782c.078 0 .13-.034.13-.102zm-1.47-3.953c0 .69-.454 1.056-1.142 1.056h-.532v-2.062h.43c.747 0 1.245.265 1.245 1.006zm6.022-1.406c.774.443 1.229 1.278 1.229 2.539 0 1.022-.352 1.79-.937 2.283-.532.443-1.28.64-2.13.64h-1.642c-.171 0-.249-.043-.249-.24v-5.4c0-.18.052-.256.267-.256h1.237c.988 0 1.658.11 2.225.434zm-.498 4.09c.344-.341.541-.852.541-1.56 0-.775-.232-1.363-.67-1.687-.352-.255-.808-.349-1.358-.349h-.627v4.047h.662c.593 0 1.091-.093 1.452-.451zm6.353.681c0-.136-.069-.196-.215-.196H41.19V48.1h1.994c.146 0 .206-.06.206-.204v-.486c0-.12-.052-.187-.215-.187H41.19V45.68h2.157c.18 0 .275-.026.292-.18l.06-.51c.017-.12-.008-.197-.18-.197h-3.24c-.137 0-.197.077-.197.214v5.452c0 .188.06.23.232.23h3.188c.146 0 .206-.068.206-.204v-.486zm5.207.469a.253.253 0 0 1 .043.12c0 .067-.051.101-.129.101h-.781c-.155 0-.258-.042-.336-.17l-1.237-2.002h-.661v1.96c0 .127-.052.212-.198.212h-.705c-.146 0-.206-.068-.206-.213v-5.435c0-.188.043-.247.232-.247h1.272c.747 0 1.538.11 1.993.63.275.315.413.733.413 1.193 0 .784-.421 1.397-1.109 1.695l1.41 2.156zm-2.569-2.778c.688 0 1.143-.366 1.143-1.056 0-.741-.498-1.006-1.246-1.006h-.43v2.062h.533z" fill="#fff"></path>
    <defs>
        <linearGradient id="bkf182es9a-3" x1=".145" y1="0" x2=".145" y2="63.722" gradientUnits="userSpaceOnUse">
            <stop stop-color="#984CCD"></stop>
            <stop offset="1" stop-color="#5F259F"></stop>
        </linearGradient>
    </defs>
</svg>